# xmcd
#
# Track frame offsets:
#	150
#	16550
#	37875
#	48862
#	62962
#	76700
#	90250
#	106650
#	117600
#	130712
#	143312
#	154800
#	167200
#	175825
#
# Disc length: 2490 seconds
#
# Revision: 2
# Processed by: cddbd v1.5.1PL2 Copyright (c) Steve Scherf et al.
# Submitted via: audiograbber 1.83.01
#
DISCID=9909b80e
DTITLE=Various Artist - Growing Slowly Insane
DYEAR=1900
DGENRE=60's Garage Punk
TTITLE0=Flower Travelling Band - Satori (Enlightenment)
TTITLE1=Jake Holmes - Leaves Never Break 
TTITLE2=Scoundrels - Come Home With Me
TTITLE3=Music Fair - Councilman Jones
TTITLE4=Children Of The Mushroom - You Can't Erase A Mirror
TTITLE5=Things To Come - Come Alive
TTITLE6=Iota - Within These Precints
TTITLE7=Children Of The Mushroom - August Madamoiselle
TTITLE8=Pleasure - Don't Take The Night Away
TTITLE9=Preston - This World Is Closing On Me
TTITLE10=Hamilton Streetcar - Flash
TTITLE11=Glass Family - Guess I'll Let You Go
TTITLE12=American Zoo - Mr. Brotherhood
TTITLE13=Pinocchio and The Puppets - Fusion
EXTD=
EXTT0=
EXTT1=
EXTT2=
EXTT3=
EXTT4=
EXTT5=
EXTT6=
EXTT7=
EXTT8=
EXTT9=
EXTT10=
EXTT11=
EXTT12=
EXTT13=
PLAYORDER=
